<svg width="58" height="42" viewBox="0 0 58 42" fill="none" xmlns="http://www.w3.org/2000/svg">
<path d="M48.4565 12.2685H40.9196V10.8347C40.9196 5.18001 36.3192 0.57959 30.6645 0.57959H15.3911C13.2636 0.57959 11.3384 1.92033 10.6006 3.91575C10.0214 5.4822 10.2454 7.23571 11.1998 8.60614C12.1542 9.97668 13.7211 10.7947 15.3972 10.7947L15.4222 10.7946C16.3731 10.7946 17.1672 11.5353 17.1922 12.4456C17.2049 12.9099 17.0342 13.3482 16.7115 13.6798C16.3885 14.0118 15.9557 14.1946 15.4929 14.1946H8.08439C5.9606 14.1946 4.03894 15.533 3.30234 17.5249C2.72426 19.0885 2.94792 20.8387 3.90059 22.2066C4.85338 23.5746 6.41733 24.3913 8.08406 24.3913L8.69443 24.3914C9.63181 24.3914 10.3944 25.1539 10.3944 26.0913C10.3944 27.0287 9.63181 27.7912 8.69443 27.7912H5.11579C2.65174 27.7912 0.536784 29.5496 0.0867356 31.9722C-0.191769 33.4715 0.207519 35.0037 1.1824 36.1763C2.15716 37.3489 3.59093 38.0214 5.11579 38.0214H13.786C14.4876 39.9996 16.3768 41.4205 18.5924 41.4205C20.8081 41.4205 22.6973 39.9996 23.3989 38.0214H39.22H42.9539C43.6555 39.9996 45.5446 41.4205 47.7603 41.4205C49.976 41.4205 51.8651 39.9996 52.5667 38.0214H56.3005C57.2391 38.0214 58.0001 37.2604 58.0001 36.3218V21.8119C58.0001 16.5498 53.7188 12.2685 48.4565 12.2685ZM54.6009 21.812V23.4453H47.7438V15.6676H48.4565C51.8445 15.6677 54.6009 18.4241 54.6009 21.812ZM3.79635 34.0033C3.60419 33.7722 3.30087 33.2816 3.42879 32.593C3.57983 31.7803 4.28935 31.1904 5.11591 31.1904H8.69466C11.5063 31.1904 13.7937 28.903 13.7937 26.0913C13.7937 23.2798 11.5063 20.9922 8.695 20.9922L8.08462 20.9921C7.5207 20.9921 7.01253 20.7268 6.69029 20.264C6.36805 19.8013 6.29542 19.2325 6.49098 18.7036C6.7364 18.0398 7.3768 17.5938 8.08462 17.5938H15.493C16.8815 17.5938 18.1794 17.0456 19.1479 16.0503C20.1161 15.0553 20.6282 13.742 20.5901 12.3524C20.5151 9.61909 18.1968 7.39547 15.4162 7.39547L15.3912 7.39559C14.8244 7.39559 14.3134 7.12875 13.9893 6.66352C13.6653 6.19829 13.5922 5.62644 13.7888 5.09458C14.0355 4.4271 14.6796 3.97864 15.3911 3.97864H30.6643C34.4448 3.97864 37.5203 7.05431 37.5203 10.8346V34.6222H23.3989C22.6973 32.644 20.8081 31.223 18.5924 31.223C16.3768 31.223 14.4876 32.644 13.786 34.6222H5.11579C4.41545 34.6223 3.98852 34.2345 3.79635 34.0033ZM18.5924 38.0215C17.6553 38.0215 16.8929 37.259 16.8929 36.3219C16.8929 35.3846 17.6553 34.6223 18.5924 34.6223C19.5296 34.6223 20.292 35.3846 20.292 36.3219C20.292 37.259 19.5296 38.0215 18.5924 38.0215ZM47.7602 38.0215C46.823 38.0215 46.0606 37.259 46.0606 36.3219C46.0606 35.3846 46.823 34.6223 47.7602 34.6223C48.6973 34.6223 49.4598 35.3846 49.4598 36.3219C49.4598 37.259 48.6973 38.0215 47.7602 38.0215ZM52.5666 34.6223C51.865 32.6441 49.9759 31.2231 47.7602 31.2231C45.5445 31.2231 43.6554 32.6441 42.9538 34.6223H40.9195V15.6677H44.3445V25.145C44.3445 26.0836 45.1054 26.8446 46.0441 26.8446H54.6008V34.6224H52.5666V34.6223Z" fill="#55AEFB"/>
</svg>
