<svg width="46" height="46" viewBox="0 0 46 46" fill="none" xmlns="http://www.w3.org/2000/svg">
<path d="M41.6984 0C41.6485 0 41.599 0.00210571 41.5492 0.00631714C41.2552 0.0305329 34.6831 0.633469 32.2135 5.42326L23.2949 4.51746C21.1336 4.29811 19.0155 5.05301 17.4841 6.58597L2.09703 21.9135C-0.699887 24.7137 -0.698834 29.2684 2.09914 32.0672L13.901 43.8722C15.3186 45.29 17.1782 46 19.0316 46C20.8594 45.9996 22.6811 45.3093 24.0664 43.9262C24.7684 43.225 24.7691 42.0879 24.0675 41.3864C23.3662 40.6845 22.2281 40.6841 21.5262 41.385C20.1381 42.7712 17.8577 42.7477 16.4436 41.333L4.64147 29.5281C3.24248 28.1288 3.24213 25.8515 4.63725 24.4547L20.0247 9.12686C20.7919 8.35898 21.8514 7.98135 22.9315 8.09085L36.6053 9.47992L36.7833 11.2263C34.2926 12.1542 31.9224 12.3023 31.8683 12.3054C30.8784 12.3588 30.1185 13.2035 30.1705 14.1932C30.221 15.1517 31.0143 15.895 31.9634 15.895C31.9954 15.895 32.0274 15.8943 32.0593 15.8925C32.1745 15.8866 34.4742 15.7549 37.1573 14.8969L37.9938 23.1067C38.1037 24.1841 37.7279 25.2412 36.9624 26.008L28.1956 34.6414C27.4887 35.3374 27.4803 36.4748 28.1766 37.1813C28.8733 37.8877 30.0111 37.8962 30.7179 37.1999L39.49 28.5615C39.4928 28.5587 39.4956 28.5559 39.4988 28.5528C41.0347 27.0191 41.7897 24.9015 41.5695 22.7428L40.6155 13.3822C41.8241 12.675 42.8432 11.8418 43.6578 10.8922C45.2134 9.07738 46.0018 6.88322 46 4.37111V4.29951C46 1.92883 44.0704 0 41.6984 0ZM42.406 4.37216C42.4074 6.37961 41.6801 8.00838 40.199 9.29637L40.0322 7.65918C39.9458 6.81128 39.2748 6.14061 38.426 6.05428L36.3416 5.84265C38.1809 4.08789 41.2201 3.65868 41.763 3.5948C42.1229 3.62779 42.406 3.93137 42.406 4.29951V4.37216ZM27.842 26.3137C27.1404 27.0152 26.0027 27.0152 25.3007 26.3137C24.5988 25.6121 24.5988 24.4751 25.3007 23.7738C25.4924 23.5822 25.5272 23.3601 25.5226 23.2074C25.5156 22.9621 25.4085 22.7238 25.2214 22.5371L24.1205 21.4365C23.835 21.1512 23.4677 20.9919 23.0864 20.9876C22.8188 20.9852 22.4371 21.0543 22.0898 21.4018L21.8061 21.6853C21.2203 22.2704 21.1989 23.2372 21.7587 23.797L22.9231 24.9604C23.8772 25.914 24.4098 27.1721 24.4239 28.5036C24.4376 29.8537 23.9168 31.1259 22.9564 32.0855L22.824 32.2178C21.8528 33.1888 20.6016 33.6728 19.3424 33.6728C18.2728 33.6732 17.1979 33.3226 16.2825 32.6259L15.5299 33.3517C15.1813 33.6879 14.7314 33.855 14.2823 33.855C13.8118 33.855 13.3416 33.6714 12.989 33.3061C12.2997 32.5922 12.3204 31.4551 13.0347 30.7666L13.7082 30.117C12.9504 29.2964 12.5223 28.252 12.4988 27.1546C12.4735 25.9585 12.9297 24.8295 13.7837 23.976C14.4856 23.2748 15.6234 23.2748 16.3253 23.976C17.0269 24.6776 17.0269 25.8146 16.3253 26.5162C16.1659 26.6752 16.0876 26.8643 16.0921 27.0781C16.0971 27.3076 16.1996 27.534 16.3815 27.7154L18.2742 29.607C18.8669 30.1994 19.7304 30.2296 20.2828 29.6779L20.4152 29.5453C20.6866 29.2743 20.8337 28.9178 20.8299 28.5408C20.8257 28.1548 20.6666 27.7852 20.3818 27.5006L19.217 26.3369C17.2464 24.367 17.2678 21.141 19.2644 19.1451L19.5485 18.8616C20.4956 17.9151 21.7443 17.3956 23.0699 17.3956H23.1253C24.0418 17.4058 24.9243 17.6634 25.6972 18.1362L26.469 17.3395C27.1597 16.6267 28.2971 16.6085 29.0103 17.2984C29.7231 17.9884 29.7414 19.1255 29.051 19.8383L28.289 20.6248C28.7999 21.353 29.0889 22.209 29.1153 23.1021C29.1507 24.3171 28.6988 25.4577 27.842 26.3137Z" fill="#55AEFB"/>
</svg>
